<mxfile host="app.diagrams.net" modified="2024-03-25T09:41:02.356Z" agent="Mozilla/5.0 (Windows NT 10.0; Win64; x64; rv:124.0) Gecko/20100101 Firefox/124.0" etag="7t0ETdaFGiXLfTrXidQ9" version="24.1.0" type="github">
  <diagram id="C5RBs43oDa-KdzZeNtuy" name="Page-1">
    <mxGraphModel dx="886" dy="581" grid="1" gridSize="10" guides="1" tooltips="1" connect="1" arrows="1" fold="1" page="1" pageScale="1" pageWidth="827" pageHeight="1169" math="0" shadow="0">
      <root>
        <mxCell id="WIyWlLk6GJQsqaUBKTNV-0" />
        <mxCell id="WIyWlLk6GJQsqaUBKTNV-1" parent="WIyWlLk6GJQsqaUBKTNV-0" />
        <mxCell id="WIyWlLk6GJQsqaUBKTNV-2" value="" style="rounded=0;html=1;jettySize=auto;orthogonalLoop=1;fontSize=11;endArrow=block;endFill=0;endSize=8;strokeWidth=1;shadow=0;labelBackgroundColor=none;edgeStyle=orthogonalEdgeStyle;entryX=0.5;entryY=0;entryDx=0;entryDy=0;entryPerimeter=0;" parent="WIyWlLk6GJQsqaUBKTNV-1" source="WIyWlLk6GJQsqaUBKTNV-3" target="IJrdV3IL_r7NS5gYrvFq-0" edge="1">
          <mxGeometry relative="1" as="geometry">
            <mxPoint x="87.5" y="100" as="targetPoint" />
          </mxGeometry>
        </mxCell>
        <mxCell id="WIyWlLk6GJQsqaUBKTNV-3" value="对接待翻译文本" style="rounded=1;whiteSpace=wrap;html=1;fontSize=12;glass=0;strokeWidth=1;shadow=0;" parent="WIyWlLk6GJQsqaUBKTNV-1" vertex="1">
          <mxGeometry x="27.5" y="10" width="120" height="40" as="geometry" />
        </mxCell>
        <mxCell id="IJrdV3IL_r7NS5gYrvFq-50" style="edgeStyle=orthogonalEdgeStyle;rounded=0;orthogonalLoop=1;jettySize=auto;html=1;entryX=0;entryY=0.5;entryDx=0;entryDy=0;strokeColor=default;align=center;verticalAlign=middle;fontFamily=Helvetica;fontSize=11;fontColor=default;labelBackgroundColor=default;endArrow=block;endFill=0;" edge="1" parent="WIyWlLk6GJQsqaUBKTNV-1" source="IJrdV3IL_r7NS5gYrvFq-0" target="IJrdV3IL_r7NS5gYrvFq-1">
          <mxGeometry relative="1" as="geometry" />
        </mxCell>
        <mxCell id="IJrdV3IL_r7NS5gYrvFq-0" value="&lt;div&gt;待翻译文本是否有&lt;/div&gt;&lt;div&gt;特殊的翻译要求？&lt;/div&gt;" style="strokeWidth=2;html=1;shape=mxgraph.flowchart.decision;whiteSpace=wrap;" vertex="1" parent="WIyWlLk6GJQsqaUBKTNV-1">
          <mxGeometry x="10" y="90" width="155" height="80" as="geometry" />
        </mxCell>
        <mxCell id="IJrdV3IL_r7NS5gYrvFq-1" value="按照特殊的要求处理" style="rounded=1;whiteSpace=wrap;html=1;fontSize=12;glass=0;strokeWidth=1;shadow=0;" vertex="1" parent="WIyWlLk6GJQsqaUBKTNV-1">
          <mxGeometry x="221.5" y="110" width="120" height="40" as="geometry" />
        </mxCell>
        <mxCell id="IJrdV3IL_r7NS5gYrvFq-29" style="edgeStyle=orthogonalEdgeStyle;rounded=0;orthogonalLoop=1;jettySize=auto;html=1;entryX=0;entryY=0.5;entryDx=0;entryDy=0;strokeColor=default;align=center;verticalAlign=middle;fontFamily=Helvetica;fontSize=11;fontColor=default;labelBackgroundColor=default;endArrow=block;endFill=0;" edge="1" parent="WIyWlLk6GJQsqaUBKTNV-1" source="IJrdV3IL_r7NS5gYrvFq-2" target="IJrdV3IL_r7NS5gYrvFq-3">
          <mxGeometry relative="1" as="geometry" />
        </mxCell>
        <mxCell id="IJrdV3IL_r7NS5gYrvFq-31" style="edgeStyle=orthogonalEdgeStyle;rounded=0;orthogonalLoop=1;jettySize=auto;html=1;entryX=0.5;entryY=0;entryDx=0;entryDy=0;strokeColor=default;align=center;verticalAlign=middle;fontFamily=Helvetica;fontSize=11;fontColor=default;labelBackgroundColor=default;endArrow=block;endFill=0;" edge="1" parent="WIyWlLk6GJQsqaUBKTNV-1" source="IJrdV3IL_r7NS5gYrvFq-2" target="IJrdV3IL_r7NS5gYrvFq-16">
          <mxGeometry relative="1" as="geometry" />
        </mxCell>
        <mxCell id="IJrdV3IL_r7NS5gYrvFq-2" value="文本是否进行了切分？" style="strokeWidth=2;html=1;shape=mxgraph.flowchart.decision;whiteSpace=wrap;" vertex="1" parent="WIyWlLk6GJQsqaUBKTNV-1">
          <mxGeometry x="10.5" y="210" width="155" height="80" as="geometry" />
        </mxCell>
        <mxCell id="IJrdV3IL_r7NS5gYrvFq-30" style="edgeStyle=orthogonalEdgeStyle;rounded=0;orthogonalLoop=1;jettySize=auto;html=1;entryX=1;entryY=0.5;entryDx=0;entryDy=0;strokeColor=default;align=center;verticalAlign=middle;fontFamily=Helvetica;fontSize=11;fontColor=default;labelBackgroundColor=default;endArrow=block;endFill=0;" edge="1" parent="WIyWlLk6GJQsqaUBKTNV-1" source="IJrdV3IL_r7NS5gYrvFq-3" target="IJrdV3IL_r7NS5gYrvFq-16">
          <mxGeometry relative="1" as="geometry">
            <Array as="points">
              <mxPoint x="281.5" y="350" />
            </Array>
          </mxGeometry>
        </mxCell>
        <mxCell id="IJrdV3IL_r7NS5gYrvFq-3" value="对文本进行切分处理" style="rounded=1;whiteSpace=wrap;html=1;fontSize=12;glass=0;strokeWidth=1;shadow=0;" vertex="1" parent="WIyWlLk6GJQsqaUBKTNV-1">
          <mxGeometry x="221.5" y="230" width="120" height="40" as="geometry" />
        </mxCell>
        <mxCell id="IJrdV3IL_r7NS5gYrvFq-34" style="edgeStyle=orthogonalEdgeStyle;rounded=0;orthogonalLoop=1;jettySize=auto;html=1;strokeColor=default;align=center;verticalAlign=middle;fontFamily=Helvetica;fontSize=11;fontColor=default;labelBackgroundColor=default;endArrow=block;endFill=0;" edge="1" parent="WIyWlLk6GJQsqaUBKTNV-1" source="IJrdV3IL_r7NS5gYrvFq-4" target="IJrdV3IL_r7NS5gYrvFq-11">
          <mxGeometry relative="1" as="geometry" />
        </mxCell>
        <mxCell id="IJrdV3IL_r7NS5gYrvFq-35" style="edgeStyle=orthogonalEdgeStyle;rounded=0;orthogonalLoop=1;jettySize=auto;html=1;strokeColor=default;align=center;verticalAlign=middle;fontFamily=Helvetica;fontSize=11;fontColor=default;labelBackgroundColor=default;endArrow=block;endFill=0;" edge="1" parent="WIyWlLk6GJQsqaUBKTNV-1" source="IJrdV3IL_r7NS5gYrvFq-4" target="IJrdV3IL_r7NS5gYrvFq-6">
          <mxGeometry relative="1" as="geometry" />
        </mxCell>
        <mxCell id="IJrdV3IL_r7NS5gYrvFq-4" value="&lt;div&gt;待翻译文本是否涉及&lt;/div&gt;&lt;div&gt;人名与专有名词？&lt;br&gt;&lt;/div&gt;" style="strokeWidth=2;html=1;shape=mxgraph.flowchart.decision;whiteSpace=wrap;" vertex="1" parent="WIyWlLk6GJQsqaUBKTNV-1">
          <mxGeometry x="10.5" y="490" width="155" height="80" as="geometry" />
        </mxCell>
        <mxCell id="IJrdV3IL_r7NS5gYrvFq-33" style="edgeStyle=orthogonalEdgeStyle;rounded=0;orthogonalLoop=1;jettySize=auto;html=1;strokeColor=default;align=center;verticalAlign=middle;fontFamily=Helvetica;fontSize=11;fontColor=default;labelBackgroundColor=default;endArrow=block;endFill=0;" edge="1" parent="WIyWlLk6GJQsqaUBKTNV-1" source="IJrdV3IL_r7NS5gYrvFq-5" target="IJrdV3IL_r7NS5gYrvFq-4">
          <mxGeometry relative="1" as="geometry" />
        </mxCell>
        <mxCell id="IJrdV3IL_r7NS5gYrvFq-5" value="准备翻译工作" style="rounded=1;whiteSpace=wrap;html=1;fontSize=12;glass=0;strokeWidth=1;shadow=0;" vertex="1" parent="WIyWlLk6GJQsqaUBKTNV-1">
          <mxGeometry x="28" y="410" width="120" height="40" as="geometry" />
        </mxCell>
        <mxCell id="IJrdV3IL_r7NS5gYrvFq-37" style="edgeStyle=orthogonalEdgeStyle;rounded=0;orthogonalLoop=1;jettySize=auto;html=1;entryX=0;entryY=0.5;entryDx=0;entryDy=0;strokeColor=default;align=center;verticalAlign=middle;fontFamily=Helvetica;fontSize=11;fontColor=default;labelBackgroundColor=default;endArrow=block;endFill=0;" edge="1" parent="WIyWlLk6GJQsqaUBKTNV-1" source="IJrdV3IL_r7NS5gYrvFq-6" target="IJrdV3IL_r7NS5gYrvFq-12">
          <mxGeometry relative="1" as="geometry" />
        </mxCell>
        <mxCell id="IJrdV3IL_r7NS5gYrvFq-6" value="&lt;div&gt;待翻译文本是否涉及&lt;/div&gt;&lt;div&gt;宏及其他翻译要素？&lt;br&gt;&lt;/div&gt;" style="strokeWidth=2;html=1;shape=mxgraph.flowchart.decision;whiteSpace=wrap;" vertex="1" parent="WIyWlLk6GJQsqaUBKTNV-1">
          <mxGeometry x="11" y="610" width="155" height="80" as="geometry" />
        </mxCell>
        <mxCell id="IJrdV3IL_r7NS5gYrvFq-22" style="edgeStyle=orthogonalEdgeStyle;rounded=0;orthogonalLoop=1;jettySize=auto;html=1;entryX=0.5;entryY=0;entryDx=0;entryDy=0;strokeColor=default;align=center;verticalAlign=middle;fontFamily=Helvetica;fontSize=11;fontColor=default;labelBackgroundColor=default;endArrow=block;endFill=0;" edge="1" parent="WIyWlLk6GJQsqaUBKTNV-1" source="IJrdV3IL_r7NS5gYrvFq-7" target="IJrdV3IL_r7NS5gYrvFq-13">
          <mxGeometry relative="1" as="geometry" />
        </mxCell>
        <mxCell id="IJrdV3IL_r7NS5gYrvFq-23" style="edgeStyle=orthogonalEdgeStyle;rounded=0;orthogonalLoop=1;jettySize=auto;html=1;entryX=0;entryY=0.5;entryDx=0;entryDy=0;strokeColor=default;align=center;verticalAlign=middle;fontFamily=Helvetica;fontSize=11;fontColor=default;labelBackgroundColor=default;endArrow=block;endFill=0;" edge="1" parent="WIyWlLk6GJQsqaUBKTNV-1" source="IJrdV3IL_r7NS5gYrvFq-7" target="IJrdV3IL_r7NS5gYrvFq-9">
          <mxGeometry relative="1" as="geometry" />
        </mxCell>
        <mxCell id="IJrdV3IL_r7NS5gYrvFq-7" value="&lt;div&gt;待翻译文本是否&lt;/div&gt;&lt;div&gt;出现争议？&lt;br&gt;&lt;/div&gt;" style="strokeWidth=2;html=1;shape=mxgraph.flowchart.decision;whiteSpace=wrap;" vertex="1" parent="WIyWlLk6GJQsqaUBKTNV-1">
          <mxGeometry x="11" y="730" width="155" height="80" as="geometry" />
        </mxCell>
        <mxCell id="IJrdV3IL_r7NS5gYrvFq-25" style="edgeStyle=orthogonalEdgeStyle;rounded=0;orthogonalLoop=1;jettySize=auto;html=1;entryX=1;entryY=0.5;entryDx=0;entryDy=0;strokeColor=default;align=center;verticalAlign=middle;fontFamily=Helvetica;fontSize=11;fontColor=default;labelBackgroundColor=default;endArrow=block;endFill=0;" edge="1" parent="WIyWlLk6GJQsqaUBKTNV-1" source="IJrdV3IL_r7NS5gYrvFq-8" target="IJrdV3IL_r7NS5gYrvFq-13">
          <mxGeometry relative="1" as="geometry" />
        </mxCell>
        <mxCell id="IJrdV3IL_r7NS5gYrvFq-26" style="edgeStyle=orthogonalEdgeStyle;rounded=0;orthogonalLoop=1;jettySize=auto;html=1;entryX=0;entryY=0.5;entryDx=0;entryDy=0;strokeColor=default;align=center;verticalAlign=middle;fontFamily=Helvetica;fontSize=11;fontColor=default;labelBackgroundColor=default;endArrow=block;endFill=0;" edge="1" parent="WIyWlLk6GJQsqaUBKTNV-1" source="IJrdV3IL_r7NS5gYrvFq-8" target="IJrdV3IL_r7NS5gYrvFq-10">
          <mxGeometry relative="1" as="geometry" />
        </mxCell>
        <mxCell id="IJrdV3IL_r7NS5gYrvFq-8" value="处理结果是否满意？" style="strokeWidth=2;html=1;shape=mxgraph.flowchart.decision;whiteSpace=wrap;" vertex="1" parent="WIyWlLk6GJQsqaUBKTNV-1">
          <mxGeometry x="203.5" y="830" width="155" height="80" as="geometry" />
        </mxCell>
        <mxCell id="IJrdV3IL_r7NS5gYrvFq-24" style="edgeStyle=orthogonalEdgeStyle;rounded=0;orthogonalLoop=1;jettySize=auto;html=1;strokeColor=default;align=center;verticalAlign=middle;fontFamily=Helvetica;fontSize=11;fontColor=default;labelBackgroundColor=default;endArrow=block;endFill=0;" edge="1" parent="WIyWlLk6GJQsqaUBKTNV-1" source="IJrdV3IL_r7NS5gYrvFq-9" target="IJrdV3IL_r7NS5gYrvFq-8">
          <mxGeometry relative="1" as="geometry" />
        </mxCell>
        <mxCell id="IJrdV3IL_r7NS5gYrvFq-9" value="处理争议" style="rounded=1;whiteSpace=wrap;html=1;fontSize=12;glass=0;strokeWidth=1;shadow=0;" vertex="1" parent="WIyWlLk6GJQsqaUBKTNV-1">
          <mxGeometry x="221" y="750" width="120" height="40" as="geometry" />
        </mxCell>
        <mxCell id="IJrdV3IL_r7NS5gYrvFq-57" style="edgeStyle=orthogonalEdgeStyle;rounded=0;orthogonalLoop=1;jettySize=auto;html=1;entryX=1;entryY=0.5;entryDx=0;entryDy=0;strokeColor=default;align=center;verticalAlign=middle;fontFamily=Helvetica;fontSize=11;fontColor=default;labelBackgroundColor=default;endArrow=block;endFill=0;" edge="1" parent="WIyWlLk6GJQsqaUBKTNV-1" source="IJrdV3IL_r7NS5gYrvFq-10" target="IJrdV3IL_r7NS5gYrvFq-15">
          <mxGeometry relative="1" as="geometry">
            <Array as="points">
              <mxPoint x="477" y="1010" />
            </Array>
          </mxGeometry>
        </mxCell>
        <mxCell id="IJrdV3IL_r7NS5gYrvFq-10" value="暂时使用带有争议的翻译，搁置该段文本的翻译" style="rounded=1;whiteSpace=wrap;html=1;fontSize=12;glass=0;strokeWidth=1;shadow=0;" vertex="1" parent="WIyWlLk6GJQsqaUBKTNV-1">
          <mxGeometry x="417" y="845" width="120" height="50" as="geometry" />
        </mxCell>
        <mxCell id="IJrdV3IL_r7NS5gYrvFq-11" value="按照名词表处理专有名词" style="rounded=1;whiteSpace=wrap;html=1;fontSize=12;glass=0;strokeWidth=1;shadow=0;" vertex="1" parent="WIyWlLk6GJQsqaUBKTNV-1">
          <mxGeometry x="221" y="510" width="120" height="40" as="geometry" />
        </mxCell>
        <mxCell id="IJrdV3IL_r7NS5gYrvFq-39" style="edgeStyle=orthogonalEdgeStyle;rounded=0;orthogonalLoop=1;jettySize=auto;html=1;strokeColor=default;align=center;verticalAlign=middle;fontFamily=Helvetica;fontSize=11;fontColor=default;labelBackgroundColor=default;endArrow=block;endFill=0;" edge="1" parent="WIyWlLk6GJQsqaUBKTNV-1" source="IJrdV3IL_r7NS5gYrvFq-12">
          <mxGeometry relative="1" as="geometry">
            <mxPoint x="87.5" y="730" as="targetPoint" />
            <Array as="points">
              <mxPoint x="281.5" y="710" />
              <mxPoint x="88.5" y="710" />
              <mxPoint x="88.5" y="730" />
            </Array>
          </mxGeometry>
        </mxCell>
        <mxCell id="IJrdV3IL_r7NS5gYrvFq-12" value="处理宏或其他翻译要素" style="rounded=1;whiteSpace=wrap;html=1;fontSize=12;glass=0;strokeWidth=1;shadow=0;" vertex="1" parent="WIyWlLk6GJQsqaUBKTNV-1">
          <mxGeometry x="221" y="630" width="120" height="40" as="geometry" />
        </mxCell>
        <mxCell id="IJrdV3IL_r7NS5gYrvFq-41" style="edgeStyle=orthogonalEdgeStyle;rounded=0;orthogonalLoop=1;jettySize=auto;html=1;entryX=0.5;entryY=0;entryDx=0;entryDy=0;strokeColor=default;align=center;verticalAlign=middle;fontFamily=Helvetica;fontSize=11;fontColor=default;labelBackgroundColor=default;endArrow=block;endFill=0;" edge="1" parent="WIyWlLk6GJQsqaUBKTNV-1" source="IJrdV3IL_r7NS5gYrvFq-13" target="IJrdV3IL_r7NS5gYrvFq-40">
          <mxGeometry relative="1" as="geometry" />
        </mxCell>
        <mxCell id="IJrdV3IL_r7NS5gYrvFq-13" value="参考该文本的上下文" style="rounded=1;whiteSpace=wrap;html=1;fontSize=12;glass=0;strokeWidth=1;shadow=0;" vertex="1" parent="WIyWlLk6GJQsqaUBKTNV-1">
          <mxGeometry x="28.5" y="850" width="120" height="40" as="geometry" />
        </mxCell>
        <mxCell id="IJrdV3IL_r7NS5gYrvFq-20" style="edgeStyle=orthogonalEdgeStyle;rounded=0;orthogonalLoop=1;jettySize=auto;html=1;entryX=0.5;entryY=0;entryDx=0;entryDy=0;strokeColor=default;align=center;verticalAlign=middle;fontFamily=Helvetica;fontSize=11;fontColor=default;labelBackgroundColor=default;endArrow=block;endFill=0;" edge="1" parent="WIyWlLk6GJQsqaUBKTNV-1" source="IJrdV3IL_r7NS5gYrvFq-15" target="IJrdV3IL_r7NS5gYrvFq-18">
          <mxGeometry relative="1" as="geometry" />
        </mxCell>
        <mxCell id="IJrdV3IL_r7NS5gYrvFq-15" value="对翻译后的文本进行检查" style="rounded=1;whiteSpace=wrap;html=1;fontSize=12;glass=0;strokeWidth=1;shadow=0;" vertex="1" parent="WIyWlLk6GJQsqaUBKTNV-1">
          <mxGeometry x="28.5" y="990" width="120" height="40" as="geometry" />
        </mxCell>
        <mxCell id="IJrdV3IL_r7NS5gYrvFq-32" style="edgeStyle=orthogonalEdgeStyle;rounded=0;orthogonalLoop=1;jettySize=auto;html=1;strokeColor=default;align=center;verticalAlign=middle;fontFamily=Helvetica;fontSize=11;fontColor=default;labelBackgroundColor=default;endArrow=block;endFill=0;" edge="1" parent="WIyWlLk6GJQsqaUBKTNV-1" source="IJrdV3IL_r7NS5gYrvFq-16" target="IJrdV3IL_r7NS5gYrvFq-5">
          <mxGeometry relative="1" as="geometry" />
        </mxCell>
        <mxCell id="IJrdV3IL_r7NS5gYrvFq-16" value="阅读翻译规范与文化报告" style="rounded=1;whiteSpace=wrap;html=1;fontSize=12;glass=0;strokeWidth=1;shadow=0;" vertex="1" parent="WIyWlLk6GJQsqaUBKTNV-1">
          <mxGeometry x="28.5" y="330" width="120" height="40" as="geometry" />
        </mxCell>
        <mxCell id="IJrdV3IL_r7NS5gYrvFq-17" value="交付翻译后的文本" style="rounded=1;whiteSpace=wrap;html=1;fontSize=12;glass=0;strokeWidth=1;shadow=0;" vertex="1" parent="WIyWlLk6GJQsqaUBKTNV-1">
          <mxGeometry x="28.5" y="1129" width="120" height="40" as="geometry" />
        </mxCell>
        <mxCell id="IJrdV3IL_r7NS5gYrvFq-19" style="edgeStyle=orthogonalEdgeStyle;rounded=0;orthogonalLoop=1;jettySize=auto;html=1;entryX=0.5;entryY=0;entryDx=0;entryDy=0;endArrow=block;endFill=0;" edge="1" parent="WIyWlLk6GJQsqaUBKTNV-1" source="IJrdV3IL_r7NS5gYrvFq-18" target="IJrdV3IL_r7NS5gYrvFq-17">
          <mxGeometry relative="1" as="geometry" />
        </mxCell>
        <mxCell id="IJrdV3IL_r7NS5gYrvFq-18" value="整理翻译后的文本" style="rounded=1;whiteSpace=wrap;html=1;fontSize=12;glass=0;strokeWidth=1;shadow=0;" vertex="1" parent="WIyWlLk6GJQsqaUBKTNV-1">
          <mxGeometry x="28.5" y="1060" width="120" height="40" as="geometry" />
        </mxCell>
        <mxCell id="IJrdV3IL_r7NS5gYrvFq-28" style="edgeStyle=orthogonalEdgeStyle;rounded=0;orthogonalLoop=1;jettySize=auto;html=1;entryX=0.5;entryY=0;entryDx=0;entryDy=0;entryPerimeter=0;strokeColor=default;align=center;verticalAlign=middle;fontFamily=Helvetica;fontSize=11;fontColor=default;labelBackgroundColor=default;endArrow=block;endFill=0;" edge="1" parent="WIyWlLk6GJQsqaUBKTNV-1" source="IJrdV3IL_r7NS5gYrvFq-0" target="IJrdV3IL_r7NS5gYrvFq-2">
          <mxGeometry relative="1" as="geometry" />
        </mxCell>
        <mxCell id="IJrdV3IL_r7NS5gYrvFq-36" style="edgeStyle=orthogonalEdgeStyle;rounded=0;orthogonalLoop=1;jettySize=auto;html=1;entryX=0.5;entryY=0;entryDx=0;entryDy=0;entryPerimeter=0;strokeColor=default;align=center;verticalAlign=middle;fontFamily=Helvetica;fontSize=11;fontColor=default;labelBackgroundColor=default;endArrow=block;endFill=0;" edge="1" parent="WIyWlLk6GJQsqaUBKTNV-1" source="IJrdV3IL_r7NS5gYrvFq-11" target="IJrdV3IL_r7NS5gYrvFq-6">
          <mxGeometry relative="1" as="geometry">
            <Array as="points">
              <mxPoint x="281.5" y="580" />
              <mxPoint x="88.5" y="580" />
            </Array>
          </mxGeometry>
        </mxCell>
        <mxCell id="IJrdV3IL_r7NS5gYrvFq-38" style="edgeStyle=orthogonalEdgeStyle;rounded=0;orthogonalLoop=1;jettySize=auto;html=1;entryX=0.5;entryY=0;entryDx=0;entryDy=0;entryPerimeter=0;strokeColor=default;align=center;verticalAlign=middle;fontFamily=Helvetica;fontSize=11;fontColor=default;labelBackgroundColor=default;endArrow=block;endFill=0;" edge="1" parent="WIyWlLk6GJQsqaUBKTNV-1" source="IJrdV3IL_r7NS5gYrvFq-6" target="IJrdV3IL_r7NS5gYrvFq-7">
          <mxGeometry relative="1" as="geometry" />
        </mxCell>
        <mxCell id="IJrdV3IL_r7NS5gYrvFq-42" style="edgeStyle=orthogonalEdgeStyle;rounded=0;orthogonalLoop=1;jettySize=auto;html=1;strokeColor=default;align=center;verticalAlign=middle;fontFamily=Helvetica;fontSize=11;fontColor=default;labelBackgroundColor=default;endArrow=block;endFill=0;" edge="1" parent="WIyWlLk6GJQsqaUBKTNV-1" source="IJrdV3IL_r7NS5gYrvFq-40" target="IJrdV3IL_r7NS5gYrvFq-15">
          <mxGeometry relative="1" as="geometry" />
        </mxCell>
        <mxCell id="IJrdV3IL_r7NS5gYrvFq-40" value="翻译文本" style="rounded=1;whiteSpace=wrap;html=1;fontSize=12;glass=0;strokeWidth=1;shadow=0;" vertex="1" parent="WIyWlLk6GJQsqaUBKTNV-1">
          <mxGeometry x="28.5" y="920" width="120" height="40" as="geometry" />
        </mxCell>
        <mxCell id="IJrdV3IL_r7NS5gYrvFq-43" value="No" style="text;html=1;align=center;verticalAlign=middle;whiteSpace=wrap;rounded=0;fontFamily=Helvetica;fontSize=11;fontColor=default;labelBackgroundColor=default;" vertex="1" parent="WIyWlLk6GJQsqaUBKTNV-1">
          <mxGeometry x="161" y="220" width="60" height="30" as="geometry" />
        </mxCell>
        <mxCell id="IJrdV3IL_r7NS5gYrvFq-44" value="Yes" style="text;html=1;align=center;verticalAlign=middle;resizable=0;points=[];autosize=1;strokeColor=none;fillColor=none;fontFamily=Helvetica;fontSize=11;fontColor=default;labelBackgroundColor=default;" vertex="1" parent="WIyWlLk6GJQsqaUBKTNV-1">
          <mxGeometry x="90" y="290" width="40" height="30" as="geometry" />
        </mxCell>
        <mxCell id="IJrdV3IL_r7NS5gYrvFq-46" value="Yes" style="text;html=1;align=center;verticalAlign=middle;resizable=0;points=[];autosize=1;strokeColor=none;fillColor=none;fontFamily=Helvetica;fontSize=11;fontColor=default;labelBackgroundColor=default;" vertex="1" parent="WIyWlLk6GJQsqaUBKTNV-1">
          <mxGeometry x="171" y="500" width="40" height="30" as="geometry" />
        </mxCell>
        <mxCell id="IJrdV3IL_r7NS5gYrvFq-47" value="No" style="text;html=1;align=center;verticalAlign=middle;whiteSpace=wrap;rounded=0;fontFamily=Helvetica;fontSize=11;fontColor=default;labelBackgroundColor=default;" vertex="1" parent="WIyWlLk6GJQsqaUBKTNV-1">
          <mxGeometry x="27.499999999999886" y="570" width="60" height="30" as="geometry" />
        </mxCell>
        <mxCell id="IJrdV3IL_r7NS5gYrvFq-48" value="Yes" style="text;html=1;align=center;verticalAlign=middle;resizable=0;points=[];autosize=1;strokeColor=none;fillColor=none;fontFamily=Helvetica;fontSize=11;fontColor=default;labelBackgroundColor=default;" vertex="1" parent="WIyWlLk6GJQsqaUBKTNV-1">
          <mxGeometry x="171" y="620" width="40" height="30" as="geometry" />
        </mxCell>
        <mxCell id="IJrdV3IL_r7NS5gYrvFq-49" value="No" style="text;html=1;align=center;verticalAlign=middle;whiteSpace=wrap;rounded=0;fontFamily=Helvetica;fontSize=11;fontColor=default;labelBackgroundColor=default;" vertex="1" parent="WIyWlLk6GJQsqaUBKTNV-1">
          <mxGeometry x="27.499999999999886" y="690" width="60" height="30" as="geometry" />
        </mxCell>
        <mxCell id="IJrdV3IL_r7NS5gYrvFq-51" value="Yes" style="text;html=1;align=center;verticalAlign=middle;resizable=0;points=[];autosize=1;strokeColor=none;fillColor=none;fontFamily=Helvetica;fontSize=11;fontColor=default;labelBackgroundColor=default;" vertex="1" parent="WIyWlLk6GJQsqaUBKTNV-1">
          <mxGeometry x="171" y="100" width="40" height="30" as="geometry" />
        </mxCell>
        <mxCell id="IJrdV3IL_r7NS5gYrvFq-52" value="No" style="text;html=1;align=center;verticalAlign=middle;whiteSpace=wrap;rounded=0;fontFamily=Helvetica;fontSize=11;fontColor=default;labelBackgroundColor=default;" vertex="1" parent="WIyWlLk6GJQsqaUBKTNV-1">
          <mxGeometry x="27.499999999999886" y="170" width="60" height="30" as="geometry" />
        </mxCell>
        <mxCell id="IJrdV3IL_r7NS5gYrvFq-53" value="Yes" style="text;html=1;align=center;verticalAlign=middle;resizable=0;points=[];autosize=1;strokeColor=none;fillColor=none;fontFamily=Helvetica;fontSize=11;fontColor=default;labelBackgroundColor=default;" vertex="1" parent="WIyWlLk6GJQsqaUBKTNV-1">
          <mxGeometry x="171" y="740" width="40" height="30" as="geometry" />
        </mxCell>
        <mxCell id="IJrdV3IL_r7NS5gYrvFq-54" value="Yes" style="text;html=1;align=center;verticalAlign=middle;resizable=0;points=[];autosize=1;strokeColor=none;fillColor=none;fontFamily=Helvetica;fontSize=11;fontColor=default;labelBackgroundColor=default;" vertex="1" parent="WIyWlLk6GJQsqaUBKTNV-1">
          <mxGeometry x="161" y="840" width="40" height="30" as="geometry" />
        </mxCell>
        <mxCell id="IJrdV3IL_r7NS5gYrvFq-55" value="No" style="text;html=1;align=center;verticalAlign=middle;whiteSpace=wrap;rounded=0;fontFamily=Helvetica;fontSize=11;fontColor=default;labelBackgroundColor=default;" vertex="1" parent="WIyWlLk6GJQsqaUBKTNV-1">
          <mxGeometry x="356.9999999999999" y="840" width="60" height="30" as="geometry" />
        </mxCell>
        <mxCell id="IJrdV3IL_r7NS5gYrvFq-56" value="No" style="text;html=1;align=center;verticalAlign=middle;whiteSpace=wrap;rounded=0;fontFamily=Helvetica;fontSize=11;fontColor=default;labelBackgroundColor=default;" vertex="1" parent="WIyWlLk6GJQsqaUBKTNV-1">
          <mxGeometry x="28.499999999999886" y="810" width="60" height="30" as="geometry" />
        </mxCell>
      </root>
    </mxGraphModel>
  </diagram>
</mxfile>
